:SAMPLES-PER-SECOND 30
:FULLY-SPECIFIED
:DEGREES
189
root  60.4284 36.3935 -19.2523 37.4188 16.3147 0.393204
RightUpLeg  -72.8276 -16.2251 22.7461
RightLeg  34.9183 -3.47085 -2.86413
RightFoot  -3.80971 0.653353 -10.2789
RightToes  0.00048216 0.542163 -0.142577
Spine  66.7043 -3.73565 8.60429
Spine1  3.62797 2.15168 -2.02572
HEad  -43.5308 -10.3506 14.821
LeftShoulder1  9.22532 -26.611 -24.2019
LeftArm  -77.808 -65.4682 27.7467
LeftForeArm  0.458497 -12.3337 -0.832093
LeftHand  -0.25398 0.0180481 5.50724
RightShoulder  2.53847 12.1007 8.87855
RightArm  -61.8497 73.735 -6.37335
RightForeArm  -21.8899 9.45638 5.83749
RightHand  -2.60069 15.2499 -15.0608
LeftUpLeg  -73.9923 22.6425 -31.8209
LeftLeg  34.9153 6.09257 4.9165
LeftFoot  -8.1374 -0.252882 10.7688
LeftToes  1.06248e-005 4.65856e-005 -8.18499e-006
190
root  60.5316 36.2798 -19.2017 38.0667 16.1897 0.248032
RightUpLeg  -73.7688 -15.7859 22.7684
RightLeg  35.6625 -3.67942 -3.09828
RightFoot  -4.2119 0.602363 -10.0904
RightToes  0.00048216 0.542163 -0.142577
Spine  67.0489 -3.77509 8.46076
Spine1  3.19569 2.10723 -2.42634
HEad  -43.4465 -10.0018 14.8975
LeftShoulder1  9.10204 -26.7224 -23.6539
LeftArm  -78.8472 -65.1878 29.0896
LeftForeArm  0.226878 -12.0218 -0.64336
LeftHand  -0.25398 0.0180481 5.50724
RightShoulder  2.4902 12.0313 8.612
RightArm  -64.133 74.1689 -8.50879
RightForeArm  -21.8694 8.69025 5.65115
RightHand  -2.48938 15.1224 -14.5305
LeftUpLeg  -75.1668 22.5936 -32.5555
LeftLeg  35.668 5.93363 4.92392
LeftFoot  -8.76386 -0.199028 11.1585
LeftToes  1.06248e-005 4.65856e-005 -8.18499e-006
191
root  60.6294 36.1868 -19.1544 38.6172 16.1746 0.150665
RightUpLeg  -74.6433 -15.6792 22.9929
RightLeg  36.3183 -3.60573 -3.11157
RightFoot  -4.55228 0.569157 -10.0767
RightToes  0.00048216 0.542163 -0.142577
Spine  67.3127 -3.73818 8.32852
Spine1  2.91532 1.983 -2.38353
HEad  -43.4193 -9.62147 14.7284
LeftShoulder1  9.02424 -26.88 -23.2173
LeftArm  -79.5677 -64.7647 30.3499
LeftForeArm  -0.586684 -11.5007 -0.445376
LeftHand  -0.25398 0.0180481 5.50724
RightShoulder  2.41101 11.9498 8.13301
RightArm  -65.9514 74.5153 -10.1125
RightForeArm  -21.7767 8.27936 5.49307
RightHand  -2.33996 14.7207 -13.9615
LeftUpLeg  -75.9174 22.2014 -32.7353
LeftLeg  36.3039 6.13911 5.19079
LeftFoot  -9.27817 -0.148085 11.2878
LeftToes  1.06248e-005 4.65856e-005 -8.18499e-006
192
root  60.7175 36.1231 -19.1066 38.8835 16.1805 0.0245361
RightUpLeg  -75.1489 -15.7189 23.1972
RightLeg  36.8289 -3.42849 -3.02518
RightFoot  -4.83312 0.535953 -9.96428
RightToes  0.00048216 0.542163 -0.142577
Spine  67.7917 -3.68338 8.1997
Spine1  2.64616 1.92103 -2.30619
HEad  -43.4024 -9.24058 14.5954
LeftShoulder1  8.9265 -27.0624 -22.69
LeftArm  -79.9599 -64.4215 31.5261
LeftForeArm  -1.676 -10.567 -0.260961
LeftHand  -0.25398 0.0180481 5.50724
RightShoulder  2.31874 11.7988 7.63118
RightArm  -66.9005 74.7118 -10.779
RightForeArm  -21.6122 8.16029 5.38155
RightHand  -2.31432 14.5724 -13.9116
LeftUpLeg  -76.2313 21.7811 -32.4349
LeftLeg  36.8765 6.59344 5.65213
LeftFoot  -9.7284 -0.0978731 11.0825
LeftToes  1.06248e-005 4.65856e-005 -8.18499e-006
193
root  60.7905 36.0719 -19.0551 38.9639 16.219 -0.160812
RightUpLeg  -75.4099 -15.7802 23.4234
RightLeg  37.2539 -3.27275 -2.94272
RightFoot  -5.12446 0.502954 -9.86428
RightToes  0.00048216 0.542163 -0.142577
Spine  68.3594 -3.67953 8.07299
Spine1  2.30109 1.91666 -2.42152
HEad  -43.3689 -8.83835 14.5518
LeftShoulder1  8.81952 -27.2546 -22.126
LeftArm  -80.1149 -64.1295 32.433
LeftForeArm  -2.40055 -9.51851 -0.121189
LeftHand  -0.25398 0.0180481 5.50724
RightShoulder  2.26857 11.7048 7.36678
RightArm  -66.9722 74.821 -10.972
RightForeArm  -21.5818 8.05365 5.41101
RightHand  -2.3922 14.7708 -14.2232
LeftUpLeg  -76.3881 21.4794 -31.9787
LeftLeg  37.4261 7.02868 6.1091
LeftFoot  -10.126 -0.0540073 10.8212
LeftToes  1.06248e-005 4.65856e-005 -8.18499e-006
194
root  60.8462 36.0145 -19.0049 39.0702 16.3171 -0.356186
RightUpLeg  -75.7136 -15.7843 23.6813
RightLeg  37.7003 -3.21216 -2.93759
RightFoot  -5.40866 0.478014 -9.89436
RightToes  0.00048216 0.542163 -0.142577
Spine  68.7031 -3.64084 7.93448
Spine1  2.0089 1.87339 -2.40974
HEad  -43.3785 -8.41379 14.3844
LeftShoulder1  8.83992 -27.4496 -21.9993
LeftArm  -80.2076 -63.773 33.1246
LeftForeArm  -2.57718 -8.88907 -0.0500117
LeftHand  -0.25398 0.0180481 5.50724
RightShoulder  2.22589 11.6726 7.08664
RightArm  -66.7141 74.9639 -11.2306
RightForeArm  -21.9345 7.81067 5.56681
RightHand  -2.39516 14.7868 -14.2283
LeftUpLeg  -76.6473 21.2419 -31.6438
LeftLeg  37.9651 7.30794 6.45028
LeftFoot  -10.4903 -0.0164444 10.706
LeftToes  1.06248e-005 4.65856e-005 -8.18499e-006
195
root  60.8899 35.9585 -18.9585 39.2158 16.397 -0.591797
RightUpLeg  -75.9796 -15.5782 23.7956
RightLeg  38.0855 -3.33047 -3.07522
RightFoot  -5.60697 0.459809 -9.90095
RightToes  0.00048216 0.542163 -0.142577
Spine  68.8949 -3.47794 7.77557
Spine1  1.79761 1.8148 -2.135
HEad  -43.4043 -7.91733 14.0443
LeftShoulder1  9.0344 -27.5743 -22.5353
LeftArm  -80.2909 -63.4483 33.8602
LeftForeArm  -2.52123 -8.72502 -0.105669
LeftHand  -0.25398 0.0180481 5.50724
RightShoulder  2.12281 11.5299 6.47191
RightArm  -66.3179 75.1845 -11.0679
RightForeArm  -22.4187 7.59229 5.68747
RightHand  -2.29569 14.4422 -13.8912
LeftUpLeg  -77.0723 21.1671 -31.5387
LeftLeg  38.4658 7.41784 6.65144
LeftFoot  -10.8661 0.0211344 10.6742
LeftToes  1.06248e-005 4.65856e-005 -8.18499e-006
196
root  60.9345 35.9185 -18.91 39.397 16.4137 -0.851654
RightUpLeg  -76.1261 -15.1861 23.7152
RightLeg  38.3106 -3.57219 -3.30268
RightFoot  -5.73201 0.442318 -9.78424
RightToes  0.00048216 0.542163 -0.142577
Spine  69.091 -3.3049 7.61762
Spine1  1.60587 1.78886 -1.95442
HEad  -43.3687 -7.30508 13.7745
LeftShoulder1  9.2408 -27.5918 -23.2155
LeftArm  -80.2777 -63.3212 34.5913
LeftForeArm  -2.64839 -8.59314 -0.287737
LeftHand  -0.25398 0.0180481 5.50724
RightShoulder  1.98269 11.2377 5.71917
RightArm  -65.5121 75.3796 -9.85571
RightForeArm  -22.4745 7.60041 5.67109
RightHand  -2.2729 14.262 -13.8781
LeftUpLeg  -77.5985 21.2828 -31.6979
LeftLeg  38.8423 7.37983 6.70408
LeftFoot  -11.2283 0.0572009 10.6384
LeftToes  1.06248e-005 4.65856e-005 -8.18499e-006
